<svg width="535" height="122" viewBox="0 0 535 122" fill="none" xmlns="http://www.w3.org/2000/svg">
<path d="M172.516 1.55347V85.3985C172.516 91.3587 177.347 96.1904 183.308 96.1904V96.1904C189.268 96.1904 194.099 91.3587 194.099 85.3985V1.55347" stroke="#E8E6E3" stroke-width="5"/>
<path d="M438.163 22.0306V85.3987C438.163 91.3589 442.995 96.1906 448.955 96.1906V96.1906C454.915 96.1906 459.747 91.3589 459.747 85.3987V22.0306" stroke="#E8E6E3" stroke-width="5"/>
<path d="M459.746 82.908L459.576 65.3319L459.692 47.7644L459.692 22.9809C459.692 17.0125 454.838 12.1823 448.87 12.211V12.211C442.932 12.2396 438.137 17.0692 438.152 23.0074L438.215 48.8712L438.045 65.8419L438.125 82.9165" stroke="#E8E6E3" stroke-width="5"/>
<path d="M425.656 25.9036V84.361C425.656 97.0065 435.908 107.258 448.553 107.258V107.258C461.199 107.258 471.45 97.0065 471.45 84.3609V26.1808" stroke="#E8E6E3" stroke-width="5"/>
<path d="M471.516 85.0229L471.154 63.2607L471.335 47.2991L471.335 26.2314C471.335 13.5498 460.998 3.24259 448.316 3.27822V3.27822C435.744 3.31355 425.621 13.5072 425.674 26.0795L425.77 48.6695L425.774 69.6821L425.77 87.612" stroke="#E8E6E3" stroke-width="5"/>
<path d="M162 1.55347V86.2286C162 98.1491 171.663 107.813 183.584 107.813V107.813C195.504 107.813 205.168 98.1491 205.168 86.2287V1.55347" stroke="#E8E6E3" stroke-width="5"/>
<path d="M228.688 1V109.473" stroke="#E8E6E3" stroke-width="5" stroke-miterlimit="4.13936"/>
<path d="M228.688 1.8302L263.278 59.9406" stroke="#E8E6E3" stroke-width="5" stroke-miterlimit="4.13936" stroke-linejoin="round"/>
<path d="M263.278 1V108.089" stroke="#E8E6E3" stroke-width="5"/>
<path d="M243.098 1.37781L243.684 2.38361L262.982 35.4894" stroke="#E8E6E3" stroke-width="5"/>
<path d="M241.694 23.6908V109.473" stroke="#E8E6E3" stroke-width="5"/>
<path d="M276.007 1V109.196" stroke="#E8E6E3" stroke-width="5"/>
<path d="M294.547 3.21375H334.117" stroke="#E8E6E3" stroke-width="5"/>
<path d="M294.824 95.0835H334.395" stroke="#E8E6E3" stroke-width="5"/>
<path d="M294.824 107.259H334.395" stroke="#E8E6E3" stroke-width="5"/>
<path d="M294.824 14.8358H334.395" stroke="#E8E6E3" stroke-width="5"/>
<path d="M320.558 2.93689V95.3601" stroke="#E8E6E3" stroke-width="5"/>
<path d="M308.66 14.2824L308.66 106.152" stroke="#E8E6E3" stroke-width="5"/>
<path d="M351.827 8.19468C367.715 -3.78932 400.539 4.37223 399.976 30.8605C399.976 37.469 398.03 42.7062 394.165 47.4648" stroke="#E8E6E3" stroke-width="5"/>
<path d="M364.003 15.6664L368.231 15.0405C379.816 13.1069 393.876 27.5323 384.48 41.954C383.855 42.9523 383.125 43.7909 382.323 44.5129C378.212 48.214 372.245 48.748 366.722 49.0465L364.833 49.1486" stroke="#E8E6E3" stroke-width="5"/>
<path d="M393.886 45.5487C409.937 58.2779 414.634 94.9242 389.736 103.659C383.574 105.972 370.646 107.322 364.832 105.32L364.832 14.2821" stroke="#E8E6E3" stroke-width="5"/>
<path d="M352.381 7.08771L352.658 81.8011" stroke="#E8E6E3" stroke-width="5"/>
<path d="M352.658 77.3737C351.827 90.6561 359.963 96.1904 373.411 96.1904C386.86 96.1904 397.762 85.2881 397.762 71.8394C397.762 58.3907 386.86 48.5952 373.411 48.5952" stroke="#E8E6E3" stroke-width="5"/>
<path d="M499.871 1L531.14 109.196" stroke="#E8E6E3" stroke-width="5"/>
<path d="M531.97 1.55347L500.147 108.366" stroke="#E8E6E3" stroke-width="5"/>
<path d="M518.964 1L487.695 108.366" stroke="#E8E6E3" stroke-width="5"/>
<path d="M488.525 1.8302L503.468 54.4063M518.964 108.643L509.556 75.9902" stroke="#E8E6E3" stroke-width="5"/>
<g filter="url(#filter0_d_17_1549)">
<path d="M0 2.54407H123.353V111H0V2.54407Z" fill="#BEBEBE"/>
<path d="M1.5 4.04407H121.853V109.5H1.5V4.04407Z" stroke="black" stroke-width="3"/>
</g>
<path d="M76.8977 25.1818H89.5455V70.7955C89.5455 75.7955 88.3636 80.1932 86 83.9886C83.6591 87.7841 80.3636 90.75 76.1136 92.8864C71.8636 95 66.8977 96.0568 61.2159 96.0568C55.5114 96.0568 50.5341 95 46.2841 92.8864C42.0341 90.75 38.7386 87.7841 36.3977 83.9886C34.0568 80.1932 32.8864 75.7955 32.8864 70.7955V25.1818H45.5341V69.7386C45.5341 72.6477 46.1705 75.2386 47.4432 77.5114C48.7386 79.7841 50.5568 81.5682 52.8977 82.8636C55.2386 84.1364 58.0114 84.7727 61.2159 84.7727C64.4205 84.7727 67.1932 84.1364 69.5341 82.8636C71.8977 81.5682 73.7159 79.7841 74.9886 77.5114C76.2614 75.2386 76.8977 72.6477 76.8977 69.7386V25.1818Z" fill="black"/>
<defs>
<filter id="filter0_d_17_1549" x="0" y="2.54407" width="134.653" height="118.756" filterUnits="userSpaceOnUse" color-interpolation-filters="sRGB">
<feFlood flood-opacity="0" result="BackgroundImageFix"/>
<feColorMatrix in="SourceAlpha" type="matrix" values="0 0 0 0 0 0 0 0 0 0 0 0 0 0 0 0 0 0 127 0" result="hardAlpha"/>
<feOffset dx="8" dy="7"/>
<feGaussianBlur stdDeviation="1.65"/>
<feComposite in2="hardAlpha" operator="out"/>
<feColorMatrix type="matrix" values="0 0 0 0 0 0 0 0 0 0 0 0 0 0 0 0 0 0 0.64 0"/>
<feBlend mode="normal" in2="BackgroundImageFix" result="effect1_dropShadow_17_1549"/>
<feBlend mode="normal" in="SourceGraphic" in2="effect1_dropShadow_17_1549" result="shape"/>
</filter>
</defs>
</svg>
