<svg width="467" height="356" viewBox="0 0 467 356" fill="none" xmlns="http://www.w3.org/2000/svg">
<rect x="0.5" y="0.5" width="465.652" height="354.258" fill="#363636" stroke="#6C6C6C"/>
<path d="M217.397 210.969C221.439 214.794 226.661 216.666 233.062 216.587C239.462 216.507 244.178 214.316 247.21 210.013L303.805 129.688L218.913 183.238C214.365 186.106 211.965 190.489 211.712 196.386C211.46 202.283 213.355 207.144 217.397 210.969ZM233.062 101C242.999 101 252.558 102.315 261.738 104.945C270.918 107.574 279.55 111.519 287.635 116.778L268.433 128.253C262.875 125.544 257.106 123.512 251.126 122.157C245.147 120.802 239.125 120.125 233.062 120.125C210.66 120.125 191.584 127.576 175.835 142.477C160.087 157.379 152.212 175.428 152.212 196.625C152.212 203.319 153.181 209.933 155.118 216.467C157.055 223.002 159.792 229.137 163.329 234.875H302.794C306.668 228.819 309.489 222.523 311.258 215.989C313.027 209.455 313.911 202.681 313.911 195.669C313.911 189.931 313.195 184.353 311.763 178.934C310.332 173.516 308.184 168.256 305.321 163.156L317.448 144.987C322.501 152.478 326.501 160.447 329.449 168.894C332.397 177.341 333.955 186.106 334.123 195.191C334.292 204.275 333.197 212.961 330.839 221.248C328.481 229.536 325.028 237.425 320.48 244.916C318.627 247.784 316.101 250.016 312.9 251.609C309.7 253.203 306.331 254 302.794 254H163.329C159.792 254 156.423 253.203 153.223 251.609C150.023 250.016 147.496 247.784 145.643 244.916C141.264 237.744 137.895 230.134 135.537 222.085C133.179 214.037 132 205.55 132 196.625C132 183.397 134.653 171.005 139.959 159.451C145.264 147.896 152.507 137.776 161.687 129.09C170.867 120.404 181.604 113.551 193.9 108.53C206.196 103.51 219.25 101 233.062 101Z" fill="#C8C8C8"/>
</svg>
