<svg width="467" height="356" viewBox="0 0 467 356" fill="none" xmlns="http://www.w3.org/2000/svg">
<rect x="0.5" y="0.5" width="465.652" height="354.258" fill="#363636" stroke="#6C6C6C"/>
<path d="M312.333 290.14L290.037 267.843C282.033 273.07 273.498 277.072 264.432 279.849C255.367 282.626 245.933 284.015 236.133 284.015C222.575 284.015 209.834 281.442 197.91 276.296C185.986 271.151 175.613 264.168 166.793 255.347C157.972 246.527 150.989 236.154 145.844 224.23C140.698 212.306 138.125 199.565 138.125 186.007C138.125 176.207 139.514 166.773 142.291 157.708C145.068 148.642 149.07 140.107 154.297 132.103L132 109.807L145.966 95.8406L326.299 276.174L312.333 290.14ZM236.133 264.413C243.157 264.413 249.976 263.515 256.592 261.718C263.207 259.921 269.619 257.226 275.826 253.632L168.508 146.314C164.914 152.521 162.219 158.933 160.422 165.548C158.625 172.164 157.727 178.983 157.727 186.007C157.727 207.732 165.363 226.231 180.636 241.504C195.909 256.777 214.408 264.413 236.133 264.413ZM317.969 239.911L303.758 225.7C307.351 219.493 310.047 213.082 311.843 206.466C313.64 199.851 314.539 193.031 314.539 186.007C314.539 164.282 306.902 145.783 291.629 130.511C276.357 115.238 257.858 107.601 236.133 107.601C229.109 107.601 222.289 108.5 215.674 110.297C209.058 112.093 202.647 114.789 196.44 118.382L182.229 104.171C190.233 98.9441 198.767 94.9422 207.833 92.1653C216.899 89.3884 226.332 88 236.133 88C249.69 88 262.431 90.5727 274.356 95.7181C286.28 100.863 296.652 107.846 305.473 116.667C314.294 125.488 321.277 135.86 326.422 147.784C331.567 159.709 334.14 172.45 334.14 186.007C334.14 195.808 332.752 205.241 329.975 214.307C327.198 223.373 323.196 231.907 317.969 239.911Z" fill="#C6C6C6"/>
</svg>
