<svg width="467" height="356" viewBox="0 0 467 356" fill="none" xmlns="http://www.w3.org/2000/svg">
<rect x="0.5" y="0.5" width="465.652" height="354.258" fill="#363636" stroke="#6C6C6C"/>
<path d="M348.794 246.456C340.411 223.515 328.183 203.547 312.11 186.555C296.037 169.562 277.739 156.296 257.217 146.758C236.694 137.22 214.756 131.785 191.404 130.454C168.052 129.124 144.905 132.65 121.964 141.033L113.292 117.3C139.398 107.761 165.795 103.776 192.485 105.344C219.174 106.913 244.266 113.156 267.759 124.075C291.252 134.994 312.202 150.149 330.608 169.539C349.014 188.93 362.987 211.678 372.526 237.784L348.794 246.456Z" fill="#C6C6C6"/>
</svg>
