<svg width="467" height="356" viewBox="0 0 467 356" fill="none" xmlns="http://www.w3.org/2000/svg">
<rect x="0.5" y="0.5" width="465.652" height="354.258" fill="#363636" stroke="#6C6C6C"/>
<path d="M233.07 279.14C219.089 279.14 205.95 276.487 193.653 271.181C181.356 265.875 170.659 258.673 161.563 249.577C152.467 240.481 145.265 229.784 139.959 217.487C134.653 205.19 132 192.051 132 178.07C132 164.089 134.653 150.95 139.959 138.653C145.265 126.356 152.467 115.659 161.563 106.563C170.659 97.4667 181.356 90.2654 193.653 84.9593C205.95 79.6531 219.089 77 233.07 77C247.051 77 260.19 79.6531 272.487 84.9593C284.784 90.2654 295.481 97.4667 304.577 106.563C313.673 115.659 320.875 126.356 326.181 138.653C331.487 150.95 334.14 164.089 334.14 178.07C334.14 192.051 331.487 205.19 326.181 217.487C320.875 229.784 313.673 240.481 304.577 249.577C295.481 258.673 284.784 265.875 272.487 271.181C260.19 276.487 247.051 279.14 233.07 279.14ZM222.963 258.421V238.712C217.404 238.712 212.645 236.733 208.687 232.774C204.728 228.816 202.749 224.057 202.749 218.498V208.391L154.235 159.877C153.73 162.91 153.267 165.942 152.846 168.974C152.425 172.006 152.214 175.038 152.214 178.07C152.214 198.452 158.91 216.308 172.302 231.637C185.693 246.966 202.581 255.894 222.963 258.421ZM292.701 232.648C296.07 228.942 299.102 224.941 301.798 220.646C304.493 216.35 306.725 211.886 308.493 207.254C310.262 202.622 311.61 197.863 312.536 192.978C313.463 188.093 313.926 183.123 313.926 178.07C313.926 161.562 309.336 146.486 300.155 132.841C290.975 119.197 278.72 109.342 263.391 103.278V107.321C263.391 112.88 261.412 117.639 257.453 121.597C253.495 125.556 248.736 127.535 243.177 127.535H222.963V147.749C222.963 150.613 221.994 153.013 220.057 154.95C218.12 156.887 215.72 157.856 212.856 157.856H192.642V178.07H253.284C256.148 178.07 258.548 179.039 260.485 180.976C262.422 182.913 263.391 185.313 263.391 188.177V218.498H273.498C277.878 218.498 281.836 219.803 285.374 222.414C288.911 225.025 291.354 228.437 292.701 232.648Z" fill="#C6C6C6"/>
</svg>
